SplineFontDB: 3.0
FontName: flaticon
FullName: flaticon
FamilyName: flaticon
Weight: Regular
ItalicAngle: 0
UnderlinePosition: 0
UnderlineWidth: 0
Ascent: 448
Descent: 64
InvalidEm: 0
LayerCount: 4
Layer: 0 0 "Back" 1
Layer: 1 0 "Fore" 0
Layer: 2 0 "Back 2" 1
Layer: 3 0 "Back 3" 1
XUID: [1021 405 1622674529 23592]
OS2Version: 0
OS2_WeightWidthSlopeOnly: 0
OS2_UseTypoMetrics: 0
CreationTime: 1479362038
ModificationTime: 1479385088
PfmFamily: 17
TTFWeight: 400
TTFWidth: 5
LineGap: 46
VLineGap: 46
OS2TypoAscent: 0
OS2TypoAOffset: 1
OS2TypoDescent: 0
OS2TypoDOffset: 1
OS2TypoLinegap: 46
OS2WinAscent: 0
OS2WinAOffset: 1
OS2WinDescent: 0
OS2WinDOffset: 1
HheadAscent: 0
HheadAOffset: 1
HheadDescent: 0
HheadDOffset: 1
OS2Vendor: 'PfEd'
DEI: 91125
Encoding: Original
UnicodeInterp: none
NameList: AGL For New Fonts
DisplaySize: -48
AntiAlias: 1
FitToEm: 0
WinInfo: 0 16 4
BeginChars: 21 21

StartChar: behance2
Encoding: 1 57344 1
Width: 639
Flags: HWO
HStem: -61.25 13.5<445.308 470.337> -56.75 18<55.2662 95.032> 181.75 173.25<167.766 251.016>
VStem: 111.516 56.25<-33.9164 139> 433.266 33.75<331.129 357.25 456.25 490.915> 525.516 81<387.363 420.25>
LayerCount: 4
Back
Fore
SplineSet
166.255859375 67 m 0x7c
 166.255859375 172 l 1
 203.755859375 172 l 25
 203.755859375 172 257.755859375 70 299.755859375 47.5 c 0
 341.755859375 25 359.755859375 38.5 361.255859375 38.5 c 0
 362.755859375 38.5 371.755859375 47.5 371.755859375 47.5 c 25xbc
 371.755859375 47.5 355.255859375 46 331.255859375 62.5 c 0
 307.255859375 79 245.755859375 179.5 245.755859375 179.5 c 25
 245.755859375 179.5 308.755859375 185.5 313.255859375 256 c 0
 317.755859375 326.5 250.255859375 340 245.755859375 341.5 c 0
 244.333007812 341.974609375 109.255859375 346 95.755859375 337 c 0
 82.255859375 328 97.255859375 322 97.255859375 322 c 25
 97.255859375 322 95.755859375 323.5 110.755859375 322 c 0
 125.755859375 320.5 131.755859375 308.5 131.755859375 308.5 c 17
 124.75390625 308.5 133.950195312 106 128.755859375 77.5 c 0
 123.583007812 49.1142578125 91.255859375 53.5 91.255859375 53.5 c 25
 91.255859375 41.5 l 25
 208.255859375 40 l 25
 208.255859375 40 207.549804688 66.97265625 208.255859375 58 c 0
 209.219726562 45.75390625 172.094726562 57.4404296875 166.255859375 67 c 0x7c
404.755859375 359.5 m 25
 404.755859375 337 l 25
 434.755859375 337 l 25
 434.755859375 337 448.255859375 298 406.255859375 295 c 0
 364.255859375 292 365.755859375 317.5 365.755859375 317.5 c 25
 365.755859375 383.5 l 25
 365.755859375 383.5 364.255859375 407.5 391.255859375 413.5 c 0
 418.255859375 419.5 434.755859375 394 434.755859375 394 c 25
 452.755859375 407.5 l 25
 452.755859375 407.5 443.755859375 440.5 395.755859375 437.5 c 0
 347.755859375 434.5 343.255859375 397 343.255859375 391 c 0
 343.255859375 385 344.755859375 307 344.755859375 307 c 25
 344.755859375 307 353.755859375 262 404.755859375 269.5 c 0
 455.755859375 277 455.755859375 308.5 457.255859375 308.5 c 0
 458.755859375 308.5 458.755859375 359.5 458.755859375 359.5 c 25
 404.755859375 359.5 l 25
166.255859375 316 m 25
 166.255859375 316 164.755859375 200.5 166.255859375 200.5 c 0
 167.755859375 200.5 221.755859375 200.5 221.755859375 200.5 c 25
 221.755859375 200.5 272.755859375 205 268.255859375 260.5 c 0
 263.755859375 316 224.755859375 316 224.755859375 316 c 25
 166.255859375 316 l 25
EndSplineSet
EndChar

StartChar: blogger5
Encoding: 2 57345 2
Width: 512
Flags: W
LayerCount: 4
Fore
SplineSet
478.898 256 m 2
 450.794 256 l 1
 450.194 256 l 2
 432.611 256 417.2 270.871 415.999 288 c 1
 415.999 288 l 1
 416.002 379.334 342.371 448 250.405 448 c 2
 166.493 448 l 2
 74.587 448 0.065 374 0 282.667 c 2
 0 101.268 l 2
 0 9.941 74.587 -64 166.492 -64 c 2
 345.702 -64 l 2
 437.676 -64 512 9.941 512 101.268 c 2
 512 218.459 l 2
 512 236.71 497.28 256 478.898 256 c 2
160 320 m 2
 256 320 l 2
 273.6 320 288 305.6 288 288 c 0
 288 270.4 273.6 256 256 256 c 2
 160 256 l 2
 142.4 256 128 270.4 128 288 c 0
 128 305.6 142.4 320 160 320 c 2
352 64 m 2
 160 64 l 2
 142.4 64 128 78.4 128 96 c 0
 128 113.6 142.4 128 160 128 c 2
 352 128 l 2
 369.6 128 384 113.6 384 96 c 0
 384 78.4 369.6 64 352 64 c 2
EndSplineSet
Validated: 524329
EndChar

StartChar: deviantart3
Encoding: 3 57346 3
Width: 512
Flags: W
LayerCount: 4
Fore
SplineSet
280.928 244.5 m 1
 261.407 245.641 238.887 244.476 212.803 240.025 c 1
 272.97 131.581 l 1
 512 197.214 l 1
 509.423 203.344 505.657 209.327 500.669 215.113 c 0
 475.932 243.752 422.299 269.3 363.867 280.822 c 1
 363.868 280.835 l 1
 306.546 294.272 244.467 293.707 180.888 284.109 c 0
 178.596 283.765 176.316 283.398 174.048 283.017 c 2
 152.912 322.163 l 1
 132.341 319.417 113.008 315.138 95.109 309.426 c 1
 115.239 267.327 l 1
 82.359 254.589 55.378 236.447 35.91 214.611 c 0
 3.804 178.079 -8.885 132.157 6.537 87.436 c 0
 9.639 78.415 13.831 69.856 19.005 61.837 c 1
 258.039 127.486 l 1
 191.664 250.41 l 2
 193.943 250.85 196.262 251.294 198.628 251.722 c 0
 305.969 270.871 364.679 241.29 396.836 209.807 c 1
 315.057 189.982 l 1
 280.928 244.5 l 1
87.361 134.805 m 1
 79.982 168.481 85.855 206.068 132.563 231.102 c 1
 169.132 154.628 l 1
 87.361 134.805 l 1
EndSplineSet
Validated: 524329
EndChar

StartChar: dribbble2
Encoding: 4 57347 4
Width: 396
Flags: W
LayerCount: 4
Fore
SplineSet
197.818181818 9.61163636364 m 0
 172.761212121 9.61163636364 149.154909091 14.4252121212 126.999272727 24.0523636364 c 0
 104.843636364 33.6795151515 85.5233939394 46.7355151515 69.0385454545 63.2203636364 c 0
 52.5536969697 79.7052121212 39.4976969697 99.0254545455 29.8705454545 121.181090909 c 0
 20.2433939394 143.336727273 15.4298181818 166.943030303 15.4298181818 192 c 0
 15.4298181818 217.056969697 20.2433939394 240.663272727 29.8705454545 262.818909091 c 0
 39.4976969697 284.974545455 52.5536969697 304.294787879 69.0385454545 320.779636364 c 0
 85.5233939394 337.264484848 104.843636364 350.320484848 126.999272727 359.947636364 c 0
 149.154909091 369.574787879 172.761212121 374.388363636 197.818181818 374.388363636 c 0
 222.875151515 374.388363636 246.481454545 369.574787879 268.637090909 359.947636364 c 0
 290.792727273 350.320484848 310.112969697 337.264484848 326.597818182 320.779636364 c 0
 343.082666667 304.294787879 356.138666667 284.974545455 365.765818182 262.818909091 c 0
 375.392969697 240.663272727 380.206545455 217.056969697 380.206545455 192 c 0
 380.206545455 166.943030303 375.392969697 143.336727273 365.765818182 121.181090909 c 0
 356.138666667 99.0254545455 343.082666667 79.7052121212 326.597818182 63.2203636364 c 0
 310.112969697 46.7355151515 290.792727273 33.6795151515 268.637090909 24.0523636364 c 0
 246.481454545 14.4252121212 222.875151515 9.61163636364 197.818181818 9.61163636364 c 0
351.720727273 167.074909091 m 0
 350.401939394 167.337373737 346.839919192 168.261818182 341.038545455 169.843070707 c 0
 335.235878788 171.425616162 327.982545455 172.811636364 319.278545455 173.998545455 c 0
 310.574545455 175.185454545 300.61769697 175.910787879 289.408 176.173252525 c 0
 278.19830303 176.437010101 266.527030303 175.647030303 254.394181818 173.799434343 c 1
 259.405575758 159.820282828 263.757575758 146.566464646 267.450181818 134.037979798 c 0
 271.142787879 121.509494949 274.241939394 110.365737374 276.747636364 100.606707071 c 0
 279.253333333 90.8476767677 281.099636364 82.6711919192 282.286545455 76.0772525253 c 0
 283.473454545 69.4846060606 284.330666667 64.9994343434 284.858181818 62.6256161616 c 1
 302.267474747 74.4947070707 316.840080808 89.397010101 328.576 107.332525253 c 0
 340.313212121 125.269333333 348.028121212 145.183030303 351.720727273 167.074909091 c 0
258.746181818 48.384 m 0
 258.218666667 51.8141414141 257.163636364 57.2198787879 255.581090909 64.6050909091 c 0
 253.999838384 71.9915959596 251.888484848 80.8921212121 249.250909091 91.3118383838 c 0
 246.614626263 101.730262626 243.38359596 113.33559596 239.559111111 126.126545455 c 0
 235.734626263 138.918787879 231.052929293 152.436363636 225.512727273 166.679272727 c 1
 225.248969697 166.415515152 224.853333333 166.283636364 224.325818182 166.283636364 c 0
 202.433939394 158.634666667 183.839030303 149.469090909 168.541090909 138.786909091 c 0
 153.243151515 128.106020202 140.780606061 117.818181818 131.153454545 107.928565657 c 0
 121.52630303 98.0389494949 114.470787879 89.3995959596 109.986909091 82.0143838384 c 0
 105.503030303 74.6291717172 102.865454545 70.2771717172 102.074181818 68.9583838384 c 0
 115.525818182 58.6718383838 130.296242424 50.6285252525 146.385454545 44.8245656566 c 0
 162.474666667 39.0218989899 179.618909091 36.1205656566 197.818181818 36.1205656566 c 0
 219.182545455 36.1192727273 239.491878788 40.2075151515 258.746181818 48.384 c 0
81.8967272727 87.552 m 1
 82.688 89.1345454545 85.984969697 94.1459393939 91.7876363636 102.586828283 c 0
 97.5903030303 111.027717172 105.832727273 120.653575758 116.514909091 131.468929293 c 0
 127.197090909 142.282989899 140.187151515 153.162989899 155.485090909 164.107636364 c 0
 170.783030303 175.054868687 188.586666667 183.823515152 208.896 190.417454545 c 0
 209.951030303 190.944969697 210.940121212 191.274666667 211.863272727 191.406545455 c 0
 212.787717172 191.538424242 213.775515152 191.868121212 214.831838384 192.395636364 c 0
 212.720484848 196.879515152 210.611717172 201.231515152 208.501656566 205.451636364 c 0
 206.39030303 209.671757576 204.281535354 214.023757576 202.171474747 218.507636364 c 1
 182.653414141 212.704969697 163.662868687 208.287030303 145.199838384 205.253818182 c 0
 126.736808081 202.220606061 110.186020202 200.044606061 95.5474747475 198.725818182 c 0
 80.9089292929 197.407030303 68.7760808081 196.68169697 59.1489292929 196.549818182 c 0
 49.5217777778 196.417939394 43.7850505051 196.352 41.9387474747 196.352 c 2
 41.9387474747 191.604363636 l 2
 41.9387474747 171.558787879 45.4994747475 152.700121212 52.6209292929 135.028363636 c 0
 59.7423838384 117.356606061 69.5001212121 101.531151515 81.8967272727 87.552 c 1
45.4981818182 223.650909091 m 1
 47.0807272727 223.650909091 52.0921212121 223.716848485 60.5323636364 223.848727273 c 0
 68.9726060606 223.980606061 79.6547878788 224.64 92.5789090909 225.826909091 c 0
 105.503030303 227.013818182 120.339393939 228.926060606 137.088 231.563636364 c 0
 153.836606061 234.201212121 171.310545455 237.893818182 189.509818182 242.641454545 c 1
 182.915878788 253.983030303 176.387878788 264.797090909 169.925818182 275.083636364 c 0
 163.463757576 285.370181818 157.595151515 294.535757576 152.32 302.580363636 c 0
 147.044848485 310.624969697 142.560969697 317.284848485 138.868363636 322.56 c 0
 135.175757576 327.835151515 132.801939394 331.264 131.746909091 332.846545455 c 0
 109.591272727 322.56 90.9304242424 307.855515152 75.7643636364 288.733090909 c 0
 60.5983030303 269.610666667 50.5095757576 247.916606061 45.4981818182 223.650909091 c 1
161.419636364 343.133090909 m 1
 162.474666667 341.81430303 164.914424242 338.517333333 168.738909091 333.242181818 c 0
 172.563393939 327.967030303 177.179151515 321.241212121 182.586181818 313.064727273 c 0
 187.993212121 304.888242424 193.927757576 295.590787879 200.390464646 285.172363636 c 0
 206.851878788 274.753939394 213.249292929 263.742060606 219.579474747 252.136727273 c 1
 233.294868687 257.148121212 245.163959596 262.752969697 255.186747475 268.951272727 c 0
 265.209535354 275.149575758 273.516606061 281.018181818 280.111838384 286.557090909 c 0
 286.707070707 292.096 291.652525253 296.843636364 294.94820202 300.8 c 0
 298.245171717 304.756363636 300.289292929 307.262060606 301.080565657 308.317090909 c 0
 287.101414141 320.71369697 271.34189899 330.340848485 253.800727273 337.198545455 c 0
 236.260848485 344.056242424 217.6 347.485090909 197.818181818 347.485090909 c 0
 185.685333333 347.485090909 173.552484848 346.034424242 161.419636364 343.133090909 c 1
318.487272727 290.117818182 m 1
 317.694707071 289.062787879 315.388121212 286.359272727 311.563636364 282.007272727 c 0
 307.739151515 277.655272727 302.332121212 272.512 295.342545455 266.577454545 c 0
 288.352969697 260.642909091 279.583030303 254.312727273 269.032727273 247.586909091 c 0
 258.482424242 240.861090909 245.953939394 234.596848485 231.445979798 228.794181818 c 1
 233.292282828 225.101575758 235.072646465 221.343030303 236.788363636 217.518545455 c 0
 238.501494949 213.694060606 240.151272727 209.935515152 241.732525253 206.242909091 c 0
 242.260040404 204.924121212 242.853494949 203.605333333 243.512888889 202.286545455 c 0
 244.172929293 200.967757576 244.765737374 199.648969697 245.294545455 198.330181818 c 0
 258.217373737 199.912727273 270.877737374 200.572121212 283.275636364 200.308363636 c 0
 295.672242424 200.044606061 306.881939394 199.451151515 316.904727273 198.528 c 0
 326.927515152 197.604848485 335.235878788 196.549818182 341.829818182 195.362909091 c 0
 348.423757576 194.176 352.380121212 193.450666667 353.698909091 193.186909091 c 1
 353.435151515 211.649939394 350.270060606 229.057939394 344.203636364 245.410909091 c 0
 338.137212121 261.763878788 329.565090909 276.666181818 318.487272727 290.117818182 c 1
EndSplineSet
Validated: 524321
EndChar

StartChar: evernote2
Encoding: 5 57348 5
Width: 512
Flags: W
LayerCount: 4
Fore
SplineSet
152.3456 323.09248 m 1
 77.65504 323.17952 l 1
 171.23328 417.3312 l 1
 171.25888 341.39648 l 1
 152.3456 323.09248 l 1
416.94208 360.49408 m 0
 408.97536 374.21568 367.3344 390.02624 345.71264 390.02624 c 0
 324.11648 390.02624 290.00704 390.02624 290.00704 390.02624 c 1
 290.00704 390.02624 272.128 422.4 230.07744 422.4 c 0
 188.00128 422.4 190.82752 403.64544 190.82752 387.63008 c 2
 190.82752 322.88256 l 1
 171.75552 302.75072 l 1
 83.69152 302.75072 l 1
 83.69152 302.75072 58.88 286.34112 58.88 250.86976 c 0
 58.88 215.39328 69.888 91.79136 143.7952 80.35328 c 0
 231.2448 66.80576 246.2208 107.44832 246.2208 112.3328 c 0
 246.2208 132.92032 246.74304 164.10112 246.74304 164.10112 c 1
 246.74304 164.10112 272.35328 115.1744 311.02464 115.1744 c 0
 349.696 115.1744 372.18304 92.95872 372.18304 70.08256 c 0
 372.18304 47.18592 372.18304 27.7504 372.18304 27.7504 c 1
 372.18304 27.7504 370.7392 1.2544 348.01152 1.2544 c 0
 325.248 1.2544 299.47904 1.2544 299.47904 1.2544 c 1
 299.47904 1.2544 283.55072 13.66016 283.55072 30.81216 c 0
 283.55072 47.96416 291.33824 52.62848 300.43136 52.62848 c 0
 309.51936 52.62848 316.98432 51.57376 316.98432 51.57376 c 1
 316.98432 87.65952 l 1
 316.98432 87.65952 243.74784 88.13568 243.74784 32.05632 c 0
 243.74784 -23.99744 282.04544 -38.4 312.7552 -38.4 c 0
 343.43936 -38.4 362.78272 -38.4 362.78272 -38.4 c 1
 362.78272 -38.4 453.12 -26.78272 453.12 151.68 c 0
 453.12 330.15808 424.90368 346.76224 416.94208 360.49408 c 0
327.10656 200.51456 m 1
 327.10656 200.51456 331.50464 229.94432 348.5696 229.94432 c 0
 365.63456 229.94432 389.07392 190.6432 389.07392 190.6432 c 1
 389.07392 190.6432 335.61088 200.51456 327.10656 200.51456 c 1
EndSplineSet
Validated: 524329
EndChar

StartChar: facebook6
Encoding: 6 57349 6
Width: 512
Flags: W
LayerCount: 4
Fore
SplineSet
288.8 280.256 m 1
 288.928 324.416 l 2
 288.928 347.424 290.496 359.744 323.488 359.744 c 2
 384.48 359.744 l 1
 384.48 448 l 1
 297.056 448 l 2
 212.288 448 192.768 404.192 192.768 332.224 c 2
 192.864 280.256 l 1
 128.512 280.224 l 1
 128.512 192 l 1
 192.864 192 l 1
 192.864 -64 l 1
 288.832 -64 l 1
 288.896 192 l 1
 376.032 192.032 l 1
 385.376 280.256 l 1
 288.8 280.256 l 1
EndSplineSet
Validated: 524297
EndChar

StartChar: flickr5
Encoding: 7 57350 7
Width: 512
Flags: W
LayerCount: 4
Fore
SplineSet
0 176 m 0
 0 114.145 50.144 64 112 64 c 0
 173.856 64 224 114.145 224 176 c 0
 224 237.856 173.856 288 112 288 c 0
 50.144 288 0 237.856 0 176 c 0
288 176 m 0
 288 114.145 338.145 64 400 64 c 0
 461.855 64 512 114.145 512 176 c 0
 512 237.856 461.855 288 400 288 c 0
 338.145 288 288 237.856 288 176 c 0
EndSplineSet
Validated: 524297
EndChar

StartChar: gecko
Encoding: 8 57351 8
Width: 512
Flags: W
LayerCount: 4
Fore
SplineSet
125.08 386.368 m 0
 123.576 384.752 123.656 382.224 125.264 380.712 c 2
 146.552 360.824 l 2
 146.688 360.696 146.856 360.648 147 360.544 c 2
 149.496 306.296 l 1
 180.656 297.136 l 1
 170.344 279.776 162.664 259.504 162.664 237.336 c 0
 162.664 205.624 189.208 178.784 216.528 152.848 c 1
 180.376 140.304 l 1
 184.464 85.408 l 1
 154.68 90.616 l 2
 152.528 90.992 150.432 89.552 150.056 87.36 c 0
 149.672 85.184 151.128 83.112 153.304 82.728 c 2
 177.304 78.536 l 1
 150.496 67.712 l 2
 148.448 66.88 147.456 64.552 148.288 62.504 c 0
 148.92 60.944 150.424 60 152 60 c 0
 152.496 60 153.008 60.096 153.504 60.288 c 2
 180.552 71.208 l 1
 165.344 49.536 l 2
 164.072 47.728 164.512 45.232 166.32 43.968 c 0
 167.016 43.472 167.824 43.24 168.616 43.24 c 0
 169.872 43.24 171.112 43.832 171.888 44.944 c 2
 192.512 74.328 l 2
 192.512 74.336 192.52 74.344 192.52 74.344 c 1
 193.128 75.12 l 1
 193.136 75.752 l 1
 193.16 77.352 l 1
 194 129.664 l 1
 244.568 125.584 l 1
 262.032 107.328 275.336 88.824 275.336 68.664 c 0
 275.336 10 209.336 -42 209.336 -42 c 1
 209.336 -42 318.664 -14.664 318.664 88 c 0
 318.664 119.176 301.92 139.736 282.688 158.256 c 1
 287.968 195.664 l 1
 298.048 194.592 316.656 193.616 326.376 193.624 c 0
 329.944 193.624 339.2 195.016 340.496 195.208 c 2
 364.408 197.64 l 2
 366.6 197.864 368.208 199.824 367.976 202.024 c 0
 367.76 204.224 365.728 205.8 363.592 205.6 c 2
 339.664 203.168 l 1
 355.24 224.648 l 2
 356.528 226.44 356.128 228.936 354.352 230.232 c 0
 352.568 231.528 350.072 231.144 348.76 229.344 c 2
 333.504 208.304 l 1
 333 232.968 l 2
 332.96 235.168 331.144 237.224 328.92 237.12 c 0
 326.712 237.08 324.96 235.712 325 233.504 c 2
 325.592 203.744 l 1
 314.432 204.864 296.64 206.632 284.056 207.976 c 2
 281.08 208.264 l 1
 258.4 180.96 l 1
 240.744 198.088 226.072 216.536 226.072 243.336 c 0
 226.072 250.088 226.472 256.216 227.064 262.008 c 0
 227.32 264.544 227.632 266.984 227.984 269.344 c 2
 241.512 256.52 l 1
 298.36 274.6 l 1
 319.464 265.656 l 2
 319.976 265.44 320.488 265.336 321.016 265.336 c 0
 322.568 265.336 324.048 266.248 324.688 267.776 c 0
 325.552 269.808 324.6 272.152 322.568 273.016 c 2
 307.48 279.4 l 1
 330.04 289.736 l 2
 332.048 290.656 332.928 293.032 332.008 295.04 c 0
 331.088 297.056 328.696 297.928 326.712 297.016 c 2
 305.84 287.456 l 1
 312.896 302.424 l 2
 313.84 304.424 312.984 306.808 310.984 307.752 c 0
 309 308.704 307.456 307.832 306.52 305.84 c 2
 296 281.712 l 1
 296 281.696 l 1
 246.152 266.136 l 1
 234.12 294.064 l 1
 238.528 306.088 244.016 314.4 248.712 319.808 c 1
 262.024 316.536 278.752 319.376 293.872 328.824 c 0
 318.592 344.272 329.536 371.352 318.312 389.304 c 0
 307.096 407.256 277.96 409.288 253.24 393.84 c 0
 234.52 382.144 223.728 363.776 224.448 347.76 c 1
 216.36 341.024 205.16 330.496 194.424 317.024 c 1
 157.176 313.712 l 1
 154.872 363.552 l 1
 175.584 385.6 l 2
 177.096 387.208 177.024 389.744 175.416 391.256 c 0
 173.808 392.76 171.28 392.696 169.76 391.08 c 2
 153.016 373.256 l 1
 151.992 399.264 l 2
 151.888 401.472 149.976 403.08 147.824 402.848 c 0
 145.616 402.76 143.904 400.4 143.992 398.192 c 2
 145 373.256 l 1
 130.736 386.56 l 2
 129.12 388.064 126.592 387.984 125.08 386.368 c 0
293.736 367.44 m 0
 298.384 370.344 303.856 369.96 305.968 366.584 c 0
 308.08 363.208 306.016 358.12 301.376 355.216 c 0
 296.728 352.312 291.256 352.696 289.144 356.072 c 0
 287.032 359.448 289.088 364.544 293.736 367.44 c 0
277.736 391.44 m 0
 282.384 394.344 287.856 393.96 289.968 390.584 c 0
 292.08 387.208 290.016 382.12 285.376 379.216 c 0
 280.728 376.312 275.256 376.696 273.144 380.072 c 0
 271.032 383.448 273.088 388.544 277.736 391.44 c 0
EndSplineSet
Validated: 524325
EndChar

StartChar: github13
Encoding: 9 57352 9
Width: 512
Flags: W
LayerCount: 4
Fore
SplineSet
362.03008 371.05152 m 1
 368.02048 357.44768 371.90144 334.85312 366.11072 318.3104 c 1
 389.79072 298.09152 397.9264 248.93952 386.49856 208.77312 c 1
 420.2496 206.19776 460.44672 210.01216 486.4 199.6544 c 1
 462.14144 202.77248 429.00992 208.89088 397.7216 206.76096 c 0
 391.79264 206.35648 383.00672 206.98624 383.4368 198.64576 c 1
 419.6608 195.79904 455.64928 192.70656 485.39136 183.424 c 1
 455.89504 188.24192 420.09088 195.57888 383.4368 196.60288 c 1
 368.29696 166.72768 337.83296 152.04352 295.77216 148.95104 c 1
 300.29312 139.11552 308.95104 135.36768 311.0656 119.54176 c 0
 314.21952 95.8976 306.12992 61.27104 314.112 45.51168 c 0
 317.94176 37.95968 324.18304 37.76 328.39168 31.30368 c 1
 318.09024 19.11296 292.54656 32.67072 289.64352 45.51168 c 0
 284.66176 67.50208 297.23136 101.59616 283.53536 116.50048 c 1
 284.50304 92.5184 277.8624 58.8288 284.55424 37.4016 c 0
 287.19104 28.97408 294.80448 25.72288 292.7104 18.1248 c 1
 244.82816 13.2608 264.83712 80.09728 257.01376 119.54688 c 1
 249.78944 119.03488 252.96384 108.72832 252.93824 104.33024 c 0
 252.73344 65.80736 260.82304 12.96896 219.29984 18.1248 c 1
 218.0864 26.21952 224.8704 28.97408 227.456 36.36736 c 0
 235.02848 58.04544 226.03776 90.3424 229.50912 116.50048 c 1
 213.66272 104.55552 231.17312 62.84288 221.35296 41.45664 c 0
 215.69536 29.14816 197.46304 23.79264 183.63392 29.2864 c 1
 185.43616 38.4512 194.89792 36.97152 198.912 45.51168 c 0
 204.52352 57.41568 198.95296 74.56256 200.95488 92.16 c 1
 171.6224 86.30784 148.86912 93.00992 137.73312 111.43168 c 0
 132.75136 119.70048 131.51744 129.45408 125.49632 136.7808 c 0
 119.50592 144.11264 109.93152 145.1008 107.15648 155.02848 c 1
 143.48288 163.77344 144.87552 117.64224 177.50016 116.50048 c 0
 187.50464 116.13696 192.70656 119.38816 201.96352 121.56416 c 1
 204.55424 133.1968 210.0992 141.87008 218.27584 147.94752 c 1
 177.67936 153.50272 144.1536 166.144 128.5632 196.608 c 1
 91.65824 194.7904 57.88672 189.86496 26.60864 182.42048 c 1
 54.99904 192.73216 90.01472 196.4288 127.54944 197.64224 c 1
 125.3376 210.93376 105.94816 207.27808 93.91104 206.76608 c 0
 71.54176 205.7728 43.38176 202.99264 25.6 199.6544 c 1
 51.37408 208.8448 87.54176 207.69792 122.46016 207.7696 c 1
 111.77984 241.2544 115.4816 294.44608 138.77248 314.25536 c 1
 132.1728 330.89024 134.2208 358.09792 142.848 371.05152 c 1
 168.85248 369.88416 184.62208 358.54336 200.96 347.71968 c 1
 221.21984 353.47968 242.52416 356.34688 270.2848 354.82112 c 0
 281.9584 354.176 294.10304 348.928 302.89408 349.75744 c 0
 311.52128 350.5664 321.02912 360.24832 329.40544 363.94496 c 0
 340.31616 368.76288 349.54752 370.60096 362.03008 371.05152 c 1
EndSplineSet
Validated: 524321
EndChar

StartChar: google24
Encoding: 10 57353 10
Width: 512
Flags: W
LayerCount: 4
Fore
SplineSet
279.533 416 m 1
 279.533 416 179.055 416 145.563 416 c 0
 85.503 416 28.978 370.497 28.978 317.789 c 0
 28.978 263.926 69.919 220.456 131.022 220.456 c 0
 135.271 220.456 139.4 220.541 143.443 220.832 c 1
 139.478 213.239 136.642 204.688 136.642 195.811 c 0
 136.642 180.842 144.694 168.706 154.876 158.799 c 1
 147.183 158.799 139.755 158.575 131.65 158.575 c 0
 57.259 158.576 0 111.195 0 62.064 c 0
 0 13.675 62.771 -16.592 137.167 -16.592 c 0
 221.979 -16.592 268.82 31.53 268.82 79.922 c 0
 268.82 118.723 257.372 141.958 221.977 166.989 c 0
 209.869 175.56 186.712 196.407 186.712 208.661 c 0
 186.712 223.021 190.81 230.095 212.426 246.984 c 0
 234.582 264.296 250.262 288.635 250.262 316.942 c 0
 250.262 350.645 235.252 383.491 207.076 394.328 c 1
 249.553 394.328 l 1
 279.533 416 l 1
232.74 88.271 m 0
 233.803 83.785 234.382 79.167 234.382 74.457 c 0
 234.382 35.357 209.186 4.802 136.895 4.802 c 0
 85.474 4.802 48.337 37.354 48.337 76.452 c 0
 48.337 114.773 94.4 146.674 145.819 146.118 c 0
 157.819 145.991 169.003 144.06 179.154 140.773 c 0
 207.067 121.359 227.092 110.393 232.74 88.271 c 0
150.409 234.112 m 0
 115.89 235.144 83.091 272.725 77.133 318.042 c 0
 71.175 363.375 94.318 398.063 128.827 397.037 c 0
 163.332 396 196.146 359.63 202.106 314.308 c 0
 208.059 268.978 184.911 233.079 150.409 234.112 c 0
416 320 m 1
 416 416 l 1
 384 416 l 1
 384 320 l 1
 288 320 l 1
 288 288 l 1
 384 288 l 1
 384 192 l 1
 416 192 l 1
 416 288 l 1
 512 288 l 1
 512 320 l 1
 416 320 l 1
EndSplineSet
Validated: 524329
EndChar

StartChar: instagram10
Encoding: 11 57354 11
Width: 512
Flags: W
LayerCount: 4
Fore
SplineSet
59.552 309.333333333 m 0
 53.6533333333 309.333333333 48.8853333333 314.101333333 48.8853333333 320 c 2
 48.8853333333 416 l 2
 48.8853333333 421.898666667 53.6533333333 426.666666667 59.552 426.666666667 c 0
 65.4506666667 426.666666667 70.2186666667 421.898666667 70.2186666667 416 c 2
 70.2186666667 320 l 2
 70.2186666667 314.101333333 65.4506666667 309.333333333 59.552 309.333333333 c 0
95.552 309.333333333 m 0
 89.6533333333 309.333333333 84.8853333333 314.101333333 84.8853333333 320 c 2
 84.8853333333 424 l 2
 84.8853333333 429.898666667 89.6533333333 434.666666667 95.552 434.666666667 c 0
 101.450666667 434.666666667 106.218666667 429.898666667 106.218666667 424 c 2
 106.218666667 320 l 2
 106.218666667 314.101333333 101.450666667 309.333333333 95.552 309.333333333 c 0
131.552 309.333333333 m 0
 125.653333333 309.333333333 120.885333333 314.101333333 120.885333333 320 c 2
 120.885333333 424 l 2
 120.885333333 429.898666667 125.653333333 434.666666667 131.552 434.666666667 c 0
 137.450666667 434.666666667 142.218666667 429.898666667 142.218666667 424 c 2
 142.218666667 320 l 2
 142.218666667 314.101333333 137.450666667 309.333333333 131.552 309.333333333 c 0
397.781333333 -64 m 2
 127.114666667 -64 l 2
 46.336 -64 0 -21.4826666667 0 52.672 c 2
 0 318.666666667 l 2
 0 396.021333333 45.5466666667 448 113.333333333 448 c 2
 407.562666667 448 l 2
 457.792 448 512 399.744 512 321.770666667 c 2
 512 54.2186666667 l 2
 512 -12.0746666667 461.834666667 -64 397.781333333 -64 c 2
113.333333333 426.666666667 m 2
 45.4293333333 426.666666667 21.3333333333 368.490666667 21.3333333333 318.666666667 c 2
 21.3333333333 52.6613333333 l 2
 21.3333333333 -26.1226666667 78.8586666667 -42.6666666667 127.114666667 -42.6666666667 c 2
 397.781333333 -42.6666666667 l 2
 450.741333333 -42.6666666667 490.666666667 -1.01333333333 490.666666667 54.2186666667 c 2
 490.666666667 321.770666667 l 2
 490.666666667 386.56 447.530666667 426.666666667 407.562666667 426.666666667 c 2
 113.333333333 426.666666667 l 2
255.989333333 285.333333333 m 0
 210.826666667 285.333333333 174.208 248.704 174.208 203.541333333 c 0
 174.208 158.378666667 210.826666667 121.770666667 255.989333333 121.770666667 c 0
 301.152 121.770666667 337.770666667 158.378666667 337.770666667 203.541333333 c 0
 337.770666667 248.704 301.152 285.333333333 255.989333333 285.333333333 c 0
255.989333333 162.666666667 m 0
 233.408 162.666666667 215.093333333 180.970666667 215.093333333 203.552 c 0
 215.093333333 226.133333333 233.408 244.448 255.989333333 244.448 c 0
 278.570666667 244.448 296.885333333 226.133333333 296.885333333 203.552 c 0
 296.885333333 180.970666667 278.570666667 162.666666667 255.989333333 162.666666667 c 0
255.989333333 73.7706666667 m 0
 184.426666667 73.7706666667 126.208 131.989333333 126.208 203.552 c 0
 126.208 275.114666667 184.426666667 333.333333333 255.989333333 333.333333333 c 0
 327.552 333.333333333 385.770666667 275.114666667 385.770666667 203.552 c 0
 385.770666667 131.989333333 327.552 73.7706666667 255.989333333 73.7706666667 c 0
255.989333333 312 m 0
 196.192 312 147.541333333 263.349333333 147.541333333 203.552 c 0
 147.541333333 143.754666667 196.192 95.104 255.989333333 95.104 c 0
 315.786666667 95.104 364.437333333 143.754666667 364.437333333 203.552 c 0
 364.437333333 263.349333333 315.786666667 312 255.989333333 312 c 0
351.989333333 288.853333333 m 1
 501.322666667 288.853333333 l 1
 501.322666667 265.813333333 l 1
 351.989333333 265.813333333 l 1
 351.989333333 288.853333333 l 1
15.9893333333 288.544 m 1
 157.322666667 288.544 l 1
 157.322666667 266.122666667 l 1
 18.656 266.122666667 l 1
 15.9893333333 288.544 l 1
440.885333333 339.914666667 m 1
 440.885333333 326.954666667 430.368 316.437333333 417.397333333 316.437333333 c 2
 382.581333333 316.437333333 l 2
 369.610666667 316.437333333 359.093333333 326.954666667 359.093333333 339.914666667 c 2
 359.093333333 374.752 l 2
 359.093333333 387.712 369.610666667 398.229333333 382.581333333 398.229333333 c 2
 417.397333333 398.229333333 l 2
 430.368 398.229333333 440.885333333 387.712 440.885333333 374.752 c 2
 440.885333333 339.914666667 l 1
EndSplineSet
Validated: 524293
EndChar

StartChar: logo
Encoding: 12 57355 12
Width: 519
Flags: W
LayerCount: 4
Fore
SplineSet
117.582636526 392.488809755 m 0
 117.582636526 361.822353445 94.9419639839 336.983389303 57.6864026685 336.983389303 c 0
 22.6406725416 336.983389303 0 361.816583651 0 392.488809755 c 0
 0 423.893799725 23.3734364083 448 59.1519304019 448 c 0
 94.9419639839 448 116.861412247 423.893799725 117.582636526 392.488809755 c 0
2.9195158782 -64 m 1
 2.9195158782 293.156032365 l 1
 113.941896369 293.156032365 l 1
 113.941896369 -64 l 1
 2.9195158782 -64 l 1
180.375307084 179.21990579 m 2
 180.375307084 223.768487007 178.921318939 261.012508734 177.467330794 293.156032365 c 1
 273.863282923 293.156032365 l 1
 278.992629989 243.48964367 l 1
 281.179382001 243.48964367 l 1
 295.782731186 266.874619667 331.572764768 301.199125516 391.468998625 301.199125516 c 0
 464.503053934 301.199125516 519.281480313 252.253961099 519.281480313 147.087921747 c 2
 519.281480313 -64 l 1
 408.259099822 -64 l 1
 408.259099822 133.932790913 l 2
 408.259099822 179.952669657 392.190222903 211.346120039 352.01514571 211.346120039 c 0
 321.342919606 211.346120039 303.09306047 190.17097523 295.061506908 169.7170547 c 0
 292.130451441 162.418265005 291.397687575 152.188419843 291.397687575 141.958574681 c 2
 291.397687575 -64.0057697942 l 1
 180.375307084 -64.0057697942 l 1
 180.375307084 179.21990579 l 2
EndSplineSet
Validated: 524289
EndChar

StartChar: paypal6
Encoding: 13 57356 13
Width: 512
Flags: W
LayerCount: 4
Fore
SplineSet
324.171 416 m 2
 338.337 416 352.63 413.098 365.504 407.608 c 0
 379.046 401.834 390.166 393.646 398.556 383.272 c 0
 415.356 362.501 420.076 334.206 412.581 299.163 c 0
 404.428 260.974 385.382 229.183 357.501 207.228 c 0
 330.323 185.827 296.002 174.514 258.247 174.514 c 2
 164.112 174.514 l 1
 138.217 174.514 l 1
 132.816 149.19 l 1
 105.935 23.15 l 1
 82.986 23.15 l 1
 76.015 23.15 l 1
 39.723 23.15 l 1
 125.311 416 l 1
 324.171 416 l 2
142.893 197.993 m 1
 182.932 197.993 l 1
 244.811 197.993 l 2
 268.529 197.993 292.559 207.078 312.47 223.575 c 0
 331.88 239.656 345.608 261.336 351.168 284.675 c 0
 358.119 310.937 353.483 337.251 338.411 356.952 c 0
 323.823 376.022 300.978 386.959 275.738 386.959 c 2
 211.172 386.959 l 1
 185.597 386.959 l 1
 179.959 362.013 l 1
 151.718 237.047 l 1
 142.893 197.993 l 1
324.171 448 m 1
 99.532 448 l 1
 0 -8.85 l 1
 76.016 -8.85 l 1
 64 -64 l 1
 195.83 -64 l 1
 228.112 87.363 l 1
 322.247 87.363 l 2
 412.372 87.363 487.716 142.902 507.876 237.331 c 0
 524.734 316.171 487.474 363.297 440.317 382.613 c 1
 453.166 376.325 464.364 367.37 472.568 356.372 c 0
 489.836 333.222 494.685 301.686 486.986 262.639 c 0
 479.206 223.126 461.778 189.771 436.403 165.617 c 0
 431.761 160.765 426.792 156.244 421.501 152.077 c 0
 394.323 130.676 360.002 119.363 322.247 119.363 c 2
 316.191 119.363 l 1
 202.217 119.363 l 1
 169.935 -32 l 1
 103.723 -32 l 1
 108.766 -8.85 l 1
 131.83 -8.85 l 1
 164.112 142.513 l 1
 258.247 142.513 l 2
 348.372 142.513 423.716 198.051 443.876 292.48 c 0
 466.737 399.398 390.077 448 324.171 448 c 1
 324.171 448 l 1
182.932 229.993 m 1
 211.173 354.959 l 1
 275.739 354.959 l 2
 308.035 354.959 329.54 327.19 320.132 292.481 c 0
 312.065 257.761 278.44 229.993 244.812 229.993 c 2
 182.932 229.993 l 1
 182.932 229.993 l 1
EndSplineSet
Validated: 524325
EndChar

StartChar: social19
Encoding: 14 57357 14
Width: 512
Flags: W
LayerCount: 4
Fore
SplineSet
512.032 350.784 m 1
 493.184 342.432 472.96 336.768 451.712 334.24 c 1
 473.408 347.232 490.016 367.84 497.888 392.32 c 1
 477.568 380.288 455.072 371.552 431.136 366.816 c 1
 412 387.264 384.704 400 354.496 400 c 0
 296.48 400 249.44 352.96 249.44 294.976 c 0
 249.44 286.752 250.368 278.72 252.16 271.04 c 1
 164.864 275.424 87.456 317.248 35.648 380.8 c 1
 26.592 365.312 21.44 347.264 21.44 328 c 0
 21.44 291.552 40 259.392 68.16 240.576 c 1
 50.944 241.152 34.752 245.888 20.576 253.76 c 1
 20.576 252.448 l 2
 20.576 201.568 56.8 159.104 104.832 149.44 c 1
 96.032 147.072 86.752 145.76 77.152 145.76 c 0
 70.368 145.76 63.808 146.432 57.376 147.68 c 1
 70.752 105.952 109.536 75.584 155.488 74.72 c 1
 119.552 46.56 74.24 29.792 25.024 29.792 c 0
 16.544 29.792 8.192 30.304 -0.032 31.232 c 1
 46.464 1.408 101.664 -16 160.992 -16 c 0
 354.208 -16 459.872 144.064 459.872 282.88 c 2
 459.52 296.48 l 1
 480.128 311.232 497.984 329.728 512.032 350.784 c 1
EndSplineSet
Validated: 524297
EndChar

StartChar: social40
Encoding: 15 57358 15
Width: 502
Flags: W
LayerCount: 4
Fore
SplineSet
443.75006126 308.457730948 m 0
 430.074981622 407.633423181 331.212938005 458.130850282 225.764273462 446.306297476 c 0
 142.396471453 436.959568733 59.2795883362 369.556481255 55.8294535653 273.172261701 c 0
 53.7280078412 214.331781426 70.4141141877 170.170056359 126.400392061 157.780936045 c 1
 150.645430042 200.68806665 118.590541534 210.066160255 113.572163685 241.148738054 c 0
 93.0281793678 368.176427346 260.108796864 454.931634403 347.616760598 366.169076207 c 0
 408.182308258 304.693947562 368.286204362 115.68929184 270.678755207 135.355060034 c 0
 177.180102916 154.111247243 316.471453075 304.568488116 241.854447439 334.082822838 c 0
 181.194805195 358.108306788 148.983092379 260.689046802 177.744670424 212.261700564 c 1
 160.870374908 128.987993139 124.549865229 50.5758392551 139.259985298 -53.8377848567 c 1
 186.934574859 -19.2423425631 203.024748836 47.000245038 216.197990689 116.09703504 c 1
 240.160744915 101.512374418 252.988973291 86.3945111492 283.538348444 84.0421465327 c 0
 396.232296006 75.3227150208 459.212938005 196.547904925 443.75006126 308.457730948 c 0
EndSplineSet
Validated: 524329
EndChar

StartChar: steam2
Encoding: 16 57359 16
Width: 512
Flags: W
LayerCount: 4
Fore
SplineSet
352 304 m 0
 352 277.49 373.49 256 400 256 c 0
 426.51 256 448 277.49 448 304 c 0
 448 330.51 426.51 352 400 352 c 0
 373.49 352 352 330.51 352 304 c 0
479.196 383.196 m 0
 435.457 426.934 364.543 426.934 320.802 383.196 c 0
 303.013 365.407 292.46 343.123 289.142 320 c 1
 289.142 320 l 1
 186.795 164.886 l 1
 173.042 164.182 159.407 160.678 146.812 154.378 c 1
 67.866 216.09 l 2
 49.591 230.377 23.195 227.141 8.91 208.866 c 0
 -5.376 190.591 -2.141 164.195 16.134 149.91 c 2
 94.101 88.964 l 1
 85.621 55.573 94.437 18.695 120.566 -7.432 c 0
 160.019 -46.884 223.982 -46.884 263.434 -7.432 c 0
 287.667 16.8 297.009 50.282 291.473 81.651 c 1
 416 193.142 l 1
 415.999 193.143 l 1
 439.123 196.462 461.407 207.015 479.196 224.804 c 0
 522.935 268.542 522.935 339.457 479.196 383.196 c 0
192 -3.349 m 0
 154.805 -3.349 124.651 26.802 124.651 64 c 0
 124.651 64.355 124.672 64.707 124.678 65.062 c 2
 158.134 38.91 l 2
 165.814 32.907 174.925 29.998 183.971 29.998 c 0
 196.452 29.998 208.807 35.538 217.09 46.134 c 0
 231.376 64.409 228.141 90.805 209.866 105.09 c 2
 178.116 129.908 l 2
 182.597 130.847 187.24 131.347 192 131.347 c 0
 229.196 131.347 259.35 101.195 259.35 63.998 c 0
 259.35 26.802 229.196 -3.349 192 -3.349 c 0
400 224 m 0
 355.817 224 320 259.817 320 304 c 0
 320 348.183 355.817 384 400 384 c 0
 444.183 384 480 348.183 480 304 c 0
 480 259.817 444.183 224 400 224 c 0
EndSplineSet
Validated: 524325
EndChar

StartChar: tumblr2
Encoding: 17 57360 17
Width: 290
Flags: W
LayerCount: 4
Fore
SplineSet
172.39368208 336.72013727 m 1
 172.39368208 448 l 1
 100.557349641 448 l 1
 98.9354569053 443.877689296 98.0794579612 438.989484799 98.0794579612 433.988648863 c 0
 97.3135641691 431.578336046 96.457565225 429.84381187 96.457565225 427.388446478 c 0
 89.0689427604 386.187865722 67.6239165823 357.331690792 31.3115403229 341.630868054 c 0
 20.5890272339 336.72013727 10.722513089 335.931717189 0 336.72013727 c 1
 0 246.907827005 l 1
 52.7565665009 246.907827005 l 1
 53.635091733 120.693035329 53.635091733 55.5920630032 53.635091733 52.2806986669 c 0
 53.635091733 49.8028069867 53.635091733 47.3249153064 53.635091733 44.8019710502 c 0
 60.2578204056 -10.364908267 89.0689427604 -43.3659201901 140.203616525 -55.7328523032 c 0
 160.792643759 -61.5221083198 183.026090017 -63.977473712 205.349641427 -63.977473712 c 0
 234.160763782 -63.1665273439 262.228518633 -58.2107439835 290.296273483 -49.1326499186 c 1
 290.296273483 56.4030093713 l 1
 273.829556954 51.4472260108 258.87210172 47.3474415944 245.761802103 43.270183466 c 0
 220.194465221 35.7689295613 198.749439043 40.7247129218 181.404197281 57.2139557394 c 0
 179.759778257 59.6918474196 177.281886577 63.0032117559 176.425887633 66.2920498042 c 0
 174.038101104 79.4924545734 172.416208368 93.4587531348 172.416208368 106.726736768 c 2
 172.416208368 246.885300717 l 1
 286.917330283 246.885300717 l 1
 286.917330283 336.72013727 l 1
 172.39368208 336.72013727 l 1
EndSplineSet
Validated: 524329
EndChar

StartChar: vimeo3
Encoding: 18 57361 18
Width: 635
Flags: W
LayerCount: 4
Fore
SplineSet
542.456248885 448 m 0
 603.886502885 446.385818809 634.61685801 411.513413836 634.921420498 343.291416335 c 0
 634.921420498 338.814347748 634.769139254 334.154541669 634.525489263 329.372910594 c 0
 631.814883112 271.536493962 588.780203438 192.746178098 505.238712748 93.0324192493 c 0
 419.077984653 -11.4325144251 345.98298733 -63.72589376 285.953720778 -64 c 0
 248.614359645 -64 217.609898281 -32.0209386711 192.727142942 31.9676402356 c 1
 166.595681399 119.681637023 l 1
 140.768782345 207.273808816 l 2
 121.733626792 270.744631491 101.388852537 302.419130331 79.6735470823 302.419130331 c 0
 74.9223722563 302.419130331 58.4455416097 293.16043067 30.1516863958 274.703943846 c 1
 0 310.36821129 l 1
 46.7807982868 349.230384867 l 1
 92.8001903516 387.696627208 l 2
 134.007495092 420.711200999 165.346975195 438.558562846 186.849086907 441.208256499 c 0
 189.711974303 441.512818988 192.574861698 441.604187734 195.498661591 441.604187734 c 0
 239.629766225 441.604187734 267.192671465 409.899232645 278.004639819 346.458866219 c 0
 284.034977098 310.276842544 289.029801915 280.856106121 293.080483017 258.257569449 c 0
 297.009339123 235.598120278 300.298614003 219.821783356 302.917851407 210.837189935 c 0
 317.506394623 150.838379632 333.221819047 120.686693237 350.125037178 120.443043245 c 0
 363.099399203 120.443043245 383.078698471 139.995955029 410.062934983 179.101778597 c 0
 436.438046517 219.273570876 450.630658497 249.029326037 452.45803343 268.399500327 c 0
 453.036702159 272.328356433 453.249895901 276.013562548 453.249895901 279.424662423 c 0
 453.249895901 305.647492713 438.81363393 318.713223485 410.062934983 318.713223485 c 0
 395.474391767 318.713223485 379.911248587 315.606686098 363.251680447 309.606805068 c 1
 393.098804354 401.615132949 450.478377253 447.695437511 535.329486646 448 c 0
 537.705074059 448 540.050205223 448 542.456248885 448 c 0
EndSplineSet
Validated: 524289
EndChar

StartChar: wordpress12
Encoding: 19 57362 19
Width: 512
Flags: W
LayerCount: 4
Fore
SplineSet
25.6 192 m 0
 25.6 64.7424 128.7424 -38.4 256 -38.4 c 0
 383.22688 -38.4 486.4 64.7424 486.4 192 c 0
 486.4 319.22688 383.22688 422.4 256 422.4 c 0
 128.7424 422.4 25.6 319.22688 25.6 192 c 0
43.35616 192 m 0
 43.35616 222.82752 49.99168 252.0832 61.7728 278.54336 c 1
 163.20512 0.64 l 1
 92.28288 35.072 43.35616 107.83744 43.35616 192 c 0
256 -20.63872 m 0
 235.13088 -20.63872 214.96832 -17.59744 195.92192 -12.0064 c 1
 259.7376 173.36832 l 1
 325.09952 -5.6832 l 2
 325.52448 -6.73792 326.04672 -7.67488 326.59968 -8.576 c 1
 304.51712 -16.37888 280.74496 -20.63872 256 -20.63872 c 0
427.8528 195.98848 m 2
 439.98208 226.32448 444.03712 250.57792 444.03712 272.14336 c 0
 444.03712 279.97184 443.51488 287.23712 442.56768 294.02112 c 1
 459.16672 263.71584 468.608 228.97664 468.608 191.99488 c 0
 468.608 113.536 426.10688 45.06112 362.91072 8.22272 c 1
 427.8528 195.98848 l 2
381.99808 261.38112 m 0
 390.07232 247.22432 399.54432 229.02272 399.54432 202.73152 c 0
 399.54432 184.51968 394.12736 161.62816 383.36 133.98016 c 2
 362.14272 63.13984 l 1
 285.29152 291.6864 l 1
 298.11712 292.38272 309.61664 293.71392 309.61664 293.71392 c 2
 321.08032 295.07584 319.71328 311.8848 308.28544 311.25504 c 2
 308.28544 311.25504 273.82784 308.53632 251.5968 308.53632 c 0
 230.69696 308.53632 195.60448 311.25504 195.60448 311.25504 c 2
 184.1408 311.8848 182.8096 294.37952 194.24256 293.71392 c 2
 194.24256 293.71392 205.11232 292.38272 216.576 291.6864 c 1
 249.67168 200.91392 l 1
 203.15136 61.38368 l 1
 125.70112 291.6864 l 1
 138.52672 292.38272 150.05696 293.71392 150.05696 293.71392 c 2
 161.52576 295.07584 160.12288 311.8848 148.69504 311.25504 c 2
 148.69504 311.25504 114.26816 308.53632 92.0064 308.53632 c 0
 88.02304 308.53632 83.33824 308.63872 78.34112 308.78208 c 1
 116.37248 366.51008 181.72928 404.63872 256 404.63872 c 0
 311.36256 404.63872 361.76384 383.4624 399.58016 348.78976 c 1
 398.6688 348.86144 397.76256 348.96896 396.8512 348.96896 c 0
 375.91552 348.96896 361.12896 330.78784 361.12896 311.24992 c 0
 361.13408 293.7088 371.23584 278.8864 381.99808 261.38112 c 0
EndSplineSet
Validated: 524329
EndChar

StartChar: youtube12
Encoding: 20 57363 20
Width: 512
Flags: W
LayerCount: 4
Fore
SplineSet
416 384 m 2
 96 384 l 2
 43.2 384 0 340.8 0 288 c 2
 0 96 l 2
 0 43.2 43.2 0 96 0 c 2
 416 0 l 2
 468.8 0 512 43.2 512 96 c 2
 512 288 l 2
 512 340.8 468.8 384 416 384 c 2
480 96 m 2
 480 79.011 473.312 62.969 461.173 50.827 c 0
 449.031 38.688 432.99 32 416 32 c 2
 96 32 l 2
 79.011 32 62.969 38.688 50.828 50.827 c 0
 38.687 62.969 32 79.011 32 96 c 2
 32 288 l 2
 32 304.989 38.687 321.031 50.828 333.172 c 0
 62.969 345.313 79.011 352 96 352 c 2
 416 352 l 2
 432.989 352 449.031 345.313 461.173 333.172 c 0
 473.314 321.031 480 304.989 480 288 c 2
 480 96 l 2
192 64 m 1
 352 192 l 1
 192 320 l 1
 192 64 l 1
EndSplineSet
Validated: 524297
EndChar
